HIERARCHY
ROOT Hips
{
	OFFSET -3.958830 18.904000 13.208200
	CHANNELS 6 Xposition Yposition Zposition Zrotation Yrotation Xrotation 
	JOINT LHipJoint
	{
		OFFSET 0.000000 0.000000 0.000000
		CHANNELS 3 Zrotation Yrotation Xrotation
		JOINT LeftUpLeg
		{
			OFFSET 1.800000 -1.400000 0.085000
			CHANNELS 3 Zrotation Yrotation Xrotation
			JOINT LeftLeg
			{
				OFFSET 2.215000 -6.000000 0.000000
				CHANNELS 3 Zrotation Yrotation Xrotation
				JOINT LeftFoot
				{
					OFFSET 2.500000 -6.900000 0.000000
					CHANNELS 3 Zrotation Yrotation Xrotation
					JOINT LeftToeBase
					{
						OFFSET 0.200000 -0.500000 1.950000
						CHANNELS 3 Zrotation Yrotation Xrotation
						End Site
						{
							OFFSET 0.000000 0.000000 0.000000
						}
					}
				}
			}
		}
	}
	JOINT RHipJoint
	{
		OFFSET 0.000000 0.000000 0.000000
		CHANNELS 3 Zrotation Yrotation Xrotation
		JOINT RightUpLeg
		{
			OFFSET -1.800000 -1.400000 0.085000
			CHANNELS 3 Zrotation Yrotation Xrotation
			JOINT RightLeg
			{
				OFFSET -2.215000 -6.000000 0.000000
				CHANNELS 3 Zrotation Yrotation Xrotation
				JOINT RightFoot
				{
					OFFSET -2.500000 -6.900000 0.000000
					CHANNELS 3 Zrotation Yrotation Xrotation
					JOINT RightToeBase
					{
						OFFSET -0.200000 -0.500000 1.950000
						CHANNELS 3 Zrotation Yrotation Xrotation
						End Site
						{
							OFFSET 0.000000 0.000000 0.000000
						}
					}
				}
			}
		}
	}
	JOINT LowerBack
	{
		OFFSET 0.000000 0.000000 0.000000
		CHANNELS 3 Zrotation Yrotation Xrotation
		JOINT Spine
		{
			OFFSET -0.087000 1.940000 -0.288900
			CHANNELS 3 Zrotation Yrotation Xrotation
			JOINT Spine1
			{
				OFFSET 0.000000 1.950000 0.060000
				CHANNELS 3 Zrotation Yrotation Xrotation
				JOINT Neck
				{
					OFFSET 0.000000 0.000000 0.000000
					CHANNELS 3 Zrotation Yrotation Xrotation
					JOINT Neck1
					{
						OFFSET 0.000000 1.600000 0.340000
						CHANNELS 3 Zrotation Yrotation Xrotation
						JOINT Head
						{
							OFFSET 0.000000 1.667000 -0.240000
							CHANNELS 3 Zrotation Yrotation Xrotation
							End Site
							{
								OFFSET 0.000000 0.000000 0.000000
							}
						}
					}
				}
				JOINT LeftShoulder
				{
					OFFSET 0.000000 0.000000 0.000000
					CHANNELS 3 Zrotation Yrotation Xrotation
					JOINT LeftArm
					{
						OFFSET 2.700000 1.550000 -0.730000
						CHANNELS 3 Zrotation Yrotation Xrotation
						JOINT LeftForeArm
						{
							OFFSET 5.450000 0.000000 0.000000
							CHANNELS 3 Zrotation Yrotation Xrotation
							JOINT LeftHand
							{
								OFFSET 3.450000 0.000000 0.000000
								CHANNELS 3 Zrotation Yrotation Xrotation
								JOINT LeftHandIndex1
								{
									OFFSET 0.750000 0.000000 0.000000
									CHANNELS 3 Zrotation Yrotation Xrotation
									End Site
									{
										OFFSET 0.000000 0.000000 0.000000
									}
								}
							}
						}
					}
				}
				JOINT RightShoulder
				{
					OFFSET 0.000000 0.000000 0.000000
					CHANNELS 3 Zrotation Yrotation Xrotation
					JOINT RightArm
					{
						OFFSET -2.700000 1.550000 -0.730000
						CHANNELS 3 Zrotation Yrotation Xrotation
						JOINT RightForeArm
						{
							OFFSET -5.450000 0.000000 0.000000
							CHANNELS 3 Zrotation Yrotation Xrotation
							JOINT RightHand
							{
								OFFSET -3.450000 0.000000 0.000000
								CHANNELS 3 Zrotation Yrotation Xrotation
								JOINT RightHandIndex1
								{
									OFFSET -0.750000 0.000000 0.000000
									CHANNELS 3 Zrotation Yrotation Xrotation
									End Site
									{
										OFFSET 0.000000 0.000000 0.000000
									}
								}
							}
						}
					}
				}
			}
		}
	}
}
MOTION
Frames: 8
Frame Time: 0.016667
-0.490250 16.383810 -0.084230 8.575909 62.836334 18.274454 -14.805397 12.062337 2.301666 7.369703 -2.116948 -15.879097 0.003257 3.121584 8.585481 -0.711934 2.677747 3.603562 0.082100 0.031630 0.034490 18.594756 -10.979319 4.450768 -18.340064 4.315492 -37.622328 10.347062 -3.157540 5.272895 0.094029 -2.382300 3.307953 0.172100 0.106370 0.045910 -4.859614 2.071697 -7.592670 17.160010 -1.782227 12.912578 6.760468 -1.069614 1.380058 -0.219199 10.225215 -9.123691 21.247527 -23.085263 16.436738 1.375890 -15.634180 -13.662040 -20.276537 -1.532234 7.103233 -53.048623 18.834108 -12.674554 -66.766016 -24.442685 8.746035 -3.670566 3.130880 0.267570 0.047340 -0.010950 -0.009980 20.267643 -0.840091 -1.630504 58.922019 16.072107 -15.888951 -59.581569 70.645009 -40.797651 1.409980 0.122810 -0.209050 0.276670 0.151140 -0.100290 
-0.471110 16.390180 0.043560 9.387908 63.462452 19.443666 -14.726196 12.015780 2.254910 7.287424 -2.030639 -15.293826 0.257252 3.091074 8.768530 -0.715817 2.676390 3.600119 0.095130 0.052030 0.059270 18.664736 -11.054946 4.493227 -18.702569 4.241467 -36.845290 10.971202 -3.078507 4.305571 0.074683 -2.468185 3.269021 0.185930 0.089340 0.050220 -4.883116 2.397201 -7.525146 17.218889 -1.657454 12.099809 6.327415 -1.148547 1.169875 0.014628 10.555023 -9.351355 22.683263 -23.649654 15.061831 0.599930 -15.412490 -13.486550 -20.569779 -1.564840 7.325271 -53.192858 19.504008 -12.753006 -67.458962 -23.437424 8.123546 -3.669749 3.118755 0.262630 0.052200 -0.000830 -0.017970 19.943659 -0.830933 -1.658714 60.002086 16.623341 -14.891237 -57.506934 65.382836 -36.546405 1.539405 -0.236662 -0.203590 0.269860 0.141700 -0.109270 
-0.468950 16.398090 0.174090 10.465717 64.266021 20.493300 -14.666906 12.059443 2.199607 6.809848 -1.902755 -14.751693 0.955712 3.080356 9.935082 -0.716667 2.688266 3.587901 0.099430 0.056560 0.068190 18.705819 -11.139889 4.524455 -18.964131 4.112951 -36.121068 11.597633 -3.144577 4.056391 0.059714 -2.557301 3.229086 0.186820 0.070680 0.052550 -4.850710 2.584746 -7.456352 17.041258 -1.133422 11.720725 6.356532 -0.783415 1.303284 -0.043320 10.728313 -9.885846 23.601551 -24.790398 14.230339 0.344240 -16.102390 -13.484760 -20.131671 -2.627088 7.767390 -52.887207 19.492889 -12.620521 -69.052316 -22.928947 8.067533 -3.657560 3.129789 0.266210 0.044370 0.008100 -0.026290 19.360405 0.253865 -1.180683 60.053103 16.383114 -14.610008 -59.276600 59.850119 -35.043638 1.644626 -0.442942 -0.196440 0.261560 0.141000 -0.113370 
-0.476340 16.409650 0.309540 11.556814 65.306657 21.600575 -14.610399 12.149606 2.137496 5.908742 -1.792351 -14.485539 2.332635 3.011539 12.210924 -0.710138 2.718411 3.564278 0.094090 0.051730 0.075730 18.737250 -11.209050 4.602651 -19.258734 4.021372 -35.466996 12.699107 -3.247681 3.785719 0.042345 -2.672046 3.179342 0.179600 0.051330 0.053710 -4.756255 2.727444 -7.391080 16.574976 -0.752720 11.681237 6.583228 -0.438472 0.911576 -0.043532 10.854236 -10.425623 24.599867 -25.671735 13.251109 0.103960 -16.538880 -13.429460 -19.803642 -3.068520 8.155457 -53.561644 20.050415 -12.918008 -70.032326 -23.249166 8.355389 -3.645444 3.124977 0.270980 0.035990 0.018610 -0.039580 18.704905 1.013111 -0.908319 59.175203 16.075985 -14.307363 -59.258625 54.277135 -32.283844 1.764716 -0.673093 -0.190710 0.251330 0.143070 -0.118700 
-0.487960 16.426720 0.435420 11.863569 65.114754 21.678120 -14.642905 12.307359 2.077034 5.332254 -1.618512 -14.107317 2.899169 3.322481 15.889794 -0.690198 2.998077 3.450364 0.095660 0.047560 0.089540 18.682153 -11.196030 4.657031 -19.310841 4.084927 -34.814239 13.995260 -3.378814 3.748759 0.018697 -2.773179 3.139437 0.178190 0.036570 0.053830 -4.625755 2.521247 -7.378013 16.207070 -0.283249 12.111095 7.153436 0.057905 0.855281 -0.019804 10.725207 -10.903190 24.213912 -25.721728 13.457533 -0.437680 -16.456030 -13.912390 -19.979802 -4.211468 8.758214 -53.063915 20.829874 -13.006777 -72.555643 -24.316312 9.416035 -3.629525 3.132541 0.295010 0.025620 0.031660 -0.047970 18.613479 2.465676 -0.552439 55.834429 15.380855 -14.474461 -57.946270 50.906715 -29.649385 1.821862 -0.804190 -0.198090 0.256230 0.146800 -0.131800 
-0.506370 16.443060 0.557050 12.223358 64.957568 21.501069 -14.676964 12.448942 2.070784 4.124848 -1.481711 -13.553273 3.998721 3.474750 19.805000 -0.618569 3.326071 3.320759 0.096630 0.041210 0.099280 18.618584 -11.212991 4.695330 -19.319905 4.053939 -34.028572 15.132661 -3.543686 3.877272 -0.009043 -2.863798 3.107495 0.159850 0.005360 0.049130 -4.574198 2.320466 -7.423422 16.694645 -0.105541 12.904861 6.720551 0.560820 0.548157 0.159982 10.382695 -11.180531 23.040576 -25.871431 14.607524 -0.556930 -16.887470 -14.582710 -20.463103 -5.199565 9.116276 -52.524326 20.893293 -12.881029 -73.913067 -25.259655 10.360234 -3.592763 3.143173 0.319530 -0.006590 0.053470 -0.053280 18.445605 3.864165 -0.057223 52.538990 14.543637 -14.573068 -55.986029 47.067921 -26.475804 1.907931 -0.932487 -0.189340 0.247480 0.139740 -0.135570 
-0.543780 16.460900 0.690530 11.757978 64.448203 20.524686 -14.802552 12.664986 2.129809 3.070554 -1.400755 -13.255324 5.069806 3.642334 23.813307 -0.509821 3.765691 3.151763 0.085770 0.018850 0.098310 18.459943 -11.163314 4.654772 -18.235561 4.260794 -33.176653 15.614062 -3.555346 4.033363 -0.013802 -2.807268 3.142651 0.126770 -0.027680 0.036710 -4.395218 1.769058 -7.520811 16.592649 0.315050 14.251763 7.357273 1.415279 0.042602 0.113888 9.874649 -11.628967 21.228299 -26.132682 16.574002 -0.463750 -17.723200 -15.038200 -20.938555 -6.554569 9.659608 -52.088360 21.275376 -12.941273 -76.099290 -26.325240 11.539570 -3.547423 3.159454 0.344320 -0.047470 0.071760 -0.059670 18.770066 5.850973 0.572867 47.097225 12.959226 -14.818315 -53.261153 42.674009 -22.623192 2.016337 -1.054232 -0.179680 0.236020 0.135160 -0.135170 
-0.565740 16.481570 0.809190 11.590857 64.057727 20.014211 -14.884989 12.760181 2.247952 1.307457 -1.401740 -12.881639 5.901474 3.691615 26.944390 -0.389634 4.152412 3.019513 0.067990 -0.008170 0.080420 18.358180 -11.137680 4.594623 -17.338126 4.276595 -32.232270 15.742483 -3.511373 3.892506 -0.006192 -2.776610 3.176338 0.095020 -0.034650 0.029880 -4.275140 1.445776 -7.611527 16.612065 0.699074 15.028317 7.388416 2.118501 -0.362553 0.234701 9.436298 -12.068429 19.919871 -26.307394 17.980874 -0.445830 -18.532130 -14.393270 -21.918749 -7.741397 10.110118 -51.845687 21.445444 -12.986443 -76.646647 -27.829364 12.741956 -3.525735 3.178715 0.339910 -0.062680 0.068480 -0.055340 19.283469 7.629233 1.292702 42.498636 11.718502 -14.670553 -51.188068 38.249483 -19.438440 2.122428 -1.171503 -0.168580 0.220000 0.130970 -0.123610 
